<mxfile host="Electron" modified="2023-05-01T22:52:15.604Z" agent="Mozilla/5.0 (Windows NT 10.0; Win64; x64) AppleWebKit/537.36 (KHTML, like Gecko) draw.io/21.2.1 Chrome/112.0.5615.87 Electron/24.1.2 Safari/537.36" etag="BEHFL-M9SR-P4WIep5UX" version="21.2.1" type="device">
  <diagram name="Page-1" id="mlJKfRhJI94vlBDYGw8-">
    <mxGraphModel dx="1098" dy="820" grid="1" gridSize="10" guides="1" tooltips="1" connect="1" arrows="1" fold="1" page="1" pageScale="1" pageWidth="850" pageHeight="1100" math="0" shadow="0">
      <root>
        <mxCell id="0" />
        <mxCell id="1" parent="0" />
        <mxCell id="zVMeoH9VbbGE9zo6LWrE-2" value="" style="shape=image;verticalLabelPosition=bottom;labelBackgroundColor=default;verticalAlign=top;aspect=fixed;imageAspect=0;image=data:image/png,iVBORw0KGgoAAAANSUhEUgAAAOEAAADhCAMAAAAJbSJIAAABUFBMVEX///8AAADw1rfTODMzUGHe3t47Ozv09PTv1rYzUWLVODOurq5xcXEjHyCqqqqnp6dYWFj35M0xMTH4+Phta23W1tZfX19oaGhBQUHk5OTe29oAHB7r6+uBsMTMzMz127tKdI7wPTrBwcG4uLgAAAk+YXYVFRWMjIwpKSkaFBYcHh9OTk6YmJgMAAUkISMhGhm5NDDhOjaEhIQRDBH+7NTArZXjy66Cd2g4IiLENTGcLyxBIiJfJiVVTUWVlJQTHR+JLSwqN0AuQ1CpnYnXyrebj3yCdmeqopMwICEADRNsKCZ5KiiqMS7OvKG4qJBMJCRge4hvamHk1MDAtaOVkINgWE6xqpujk386ODzVzLlHQTr9PzwrFxuCKyk7NS9ZJiUeEApEGRwtDg8OKy9ukqNefYpATFQwO0NPZnKIus84WGx6n7FSaXRHVF1OfZkaIirE5b7vAAAYB0lEQVR4nO2d+1vaSNvHGZVwjGA4BtJkDQiZAIkQRfEUwWI9oaWVtS/7VH3ep7vudnef/v+/vTM5kURQafvWuBffva6uhDDOJ/fMfZhM0OebaaaZZppppplmmmmmmWaaaaaZZppppplmmumHKsHQdIrl2ZSfZgLP3ZnvL4aPldNZAdYAqEGqktmLsInn7tP3VKocF6ACkRQs/D9IZGL/FEv6YwRQIElCSO32N5D6g6GAMWugQT93576D/FWqhvBIsjh883ppTdPS6/eXfQmQpJKNPXf/vlnVrAJqAmIh37xbW7K0tvTu3aUA0LAtv+jpGChQQKpUUyygNpZsfCbm+10J1tIveKSymRqIRnJsFPTfG3wcN4cUDOJ/5ua4uYNrqMRfKmJijwLZQi5VJcCGgTen4WE2439BrikptQzz3H39KvkFIFXpXDWuELoB53Qyt5q7sPYircgStUqELjTSAvF6zbLfGHHNIVTSL8/d+AlQYenFZDKrA463n47YAyTYe+4OT6uEACp0LpZOpq81wMl8GPE9SgYiz93lKbUIsiwdSUYz4s+aBXUFx4KiLOASwsrL8jaJNIyxDUKgpF3bEOXGzcbg0tLPl5cEqVSfu9NTKSJIAgCQIsCbNdOC3NrS+8vLntuM3LssKCooqQPP3elptEehLI1qxAoFamgQBrml131QBNS6e4xeKru7KKcjQeG5u/10xQAJlQZL5wp7RG3NMOHae6qIBLpuGx70ms3eBvpI9Ln7/WTxEgmzrJ9vpNOZLDCm3tJrAHfPg9x9X6O9z/WuYfalhP1EQ4FxNrWXSSIhQmO27SqHQTNrM52M+Q/OUNcpiX/urj9RNAWpQi6qASYJxZiFPyuDB2PiHNcvvpRSkQdKlG7ogBlqaMSHS/Aw4NxcDzReSOpWVkAhktSVkQ4Nwm53YmJqTEYOpF9I0M9AkGoYhOniuQHWHJmwNwbwgJvjhA8vxNVUYC2VMQjjRYvMIuS6JvUoi+P6vTluoLwMwpQkQzZtEFaum25zLa39fGj+fKWH/yC3dtnnuEOQeu7OP0VsFpJywbRhduAiRFno0msTm9voG8Fy6bXc4zYA+9y9f4IKJF4XtQg/HM65hIv9jQFnzD7dwaKMfO16g7sCGe87UxbK6ibKMDNJnfHDhs18FuF7eKUT9oQNTiPkuG6pd1AEDa8vgqeyMH+6lQcxihIoIhON3rchh3Wo6M4mOBDWkRNdPzzsD4uD9SIJPV7qpygo7i+f5UkAtXsTlWRl1zUPucHGQW+9Dw4NIwJ0AnIxxaKy2zwvogKj8dwQDylQQRasL2+LpDK4fHM5VMhKRnITAlxgKMqVCQxQStA8HPQPmtx58UT0dg3VqKmby79sIRO+ebe2tvaOgmRScpWD3PmwCEDxygyEPQGgYB9sNtGoXS+ebeUh4d2QUVXE7fry8o4I36y9e/Pm9dr/QJj+cOhK1tAsbAY5bkRMkud6SYVseBbeF2HFq3E/9QEerS4vhy+U/tK7IQDXB0t95YM0fDAdReqCYU8vEQ+Kq+H5HVXx6lSMw/z+8vJya7P0Zu3NwaAIis1uUQGPEnK7YKjb8AoRhltokHtznMaAePHL8nL9bJN6v7bUvO72rg97/cODx2omvKpf3MXZK7dx3ArPh89Uby4s+rOloxYCnF/dRoTcOgxy3SEOfa6K3vGDYcTeUMFBhRv8CxHOz5+I0IsLi1Wo4jEanm9tSz8jQgF5j+GD9gvOmevEyMUAHPipixYCDK8eQcJ7RkxJ4kUYA86Hb44vl+aaj04/LX8zYYHQw6HyZB7bsL6v1ry37NZQ8lu/oDGK+nd6PHiH6r3HCIPNdyMbgj4apU3wEQOii6SSiteMGKiReTRGte6t5pX3nL2kHy+rDuaaGwK44nCw2DIIkRG9lp+Wa/mtZc2EyIibJWHMqug9wmEXO6Jmrw+UAcpoUDr+rzOdEM3lUtb/3EwOMZXSZni5blhgK1+81ANc716BbyPsX1+dn1+huDk4DyJD9oK72y2DcP6j6LGbbQUJO9K60b3WjUpuoMSMO7jemDwbuXUAlCJQ+utNdOr5sLlO3ZiA4bOjUtRLlWKioeB8bd7s3+q2qsDD7gDA9/fujOLXPWRbRNU7ONDo5hAc2OC6x/sm4Xx9RyS9lNjQhHhTt0yIETeRNyxC4RLf+3UGelTOz/WGg+7V+ToC7fWCvYON3SKaic3BsTVI0UhXa16K+ryifvzFMiHuYOskr5JwcO/udpDTNtSsC0AhqevhcHh93kWlcnHY5HqKartG83lYeW4sm6JKft5mQtzDenh/uzS4t0EB5THc+jWao91dQduiCLpdAK9RhcUNjk/Dowbq2yLwUEgUSFVLZxyM4VN1+FrLWtBAxdExqP23xDUHG9h3rl9t9HeHw6v1wytcPDWL6qqtCRQSgXfuRCW0qsJFiPuIEtQlLTJy6zanygVJLRIiD4OFa2Ktrrhp2QlXVaX83GCWCgCF+/q8m/DsSLlcMl3NECcwuhVRmITCebOpr7rptQfK1OUz+zUKozIz/dxglqq1fOueCZFuSrvvjOSaOxB6ttB4BYvUYKPbvbrqdrs4K0COdMfRQri1U/JOlRhVxPAYQpTbKO/1zWxo3lGDYDBo7dnrgqKi3dQHYANbtavkV10tnKqEV9b4E+nSRf3eIEWq3xwP1sx40ZT69oSm2R3s7u4O+t0emqhcD4jbrhZQRJS8sq6IktKdsYThVRG8M7zp3Ny50rXvuuQ4ZFJOX3Nr7kJxMxx2EYpw8bnRDPmz6um4aYjm0sXxhmVE7gqXSM70zfhpA5KkeupEDJ+Rildu66cIlHaPA0RmIKn3ViHPdYG5GcORgTf7RVmQSHWn5XCmZ5uKV2pEllK3xhCGW6cqScK+ntcEdf/S71lBw8gBuPNdRRZWFpAVL5wBcVPxyhZ3fgxhOFz/uC2SskzCy7XRbr0rcN3lbGZE9cVAgPLdyk8/fb5FiDZ/igoUxStbM3hB3XI7wvmtozwptxdCMgk23q1xJtD5UKGuekE91gebB7sATUGpvfATQiRJURxFfU8ThsOrJ6ooa/1Go08ZXr7Hdyq45tXhYZ9CwX4DlU7nB93+dVF70EQkbzsYUSJF1UL0FCHlJAzPf9xU5VvMh9RBAxXIw0H/sNtXjo+PRYSkKKQkQRzx0Qs1v3mkkvjslVsEayJ6iRB5mn3b/Jk/U1VZ6vxk6k6uRQqNTLpCKUen+zvbIvI/5BBVFYPDg/W+enQ6/8sv+2p7Ac3FlTZCNOailzxNKqt+tHtQEQ3QFZNvJbTQlilcByViYH8Z1clnJ6RKDq56TeRmro8vVpeXUbqQFxYw4k9tMm+uKKLE3StVvr+inpp89S3sQS0Dfg4tIHVEMhMJ+BoKosGa38kfC7v9w/413K8v11Gkr4sSOu8zuiDyiNA7ET8QLxmlXRh5UBEFN8N8nxcMhTpfAIhTmy19ybi+PH9yBEv//re4s6yv0NUvRO3ElZ9uzToY5aWkV/JSX6a0qRGiYgIZ8G7FxYcRFzoCLG23DIcUXl5u3ezU53eOPm7N42PhE7Wjnygftax1b8EzRX5DUfVu3SC/v2BOP6cQ45cR4fzWDoly2a38flhbRkY4C/gToTtVvzmD/kHVk2fWE2O1vO7jL0RSM+DnhTEKdSxC5I/2tzfr4VPxrG4aTD+nLZrTsHVRintmTTgFVG2ZLHyiE7rtZ+po1QqbyCXltz4ekVvhOvI04frJF82GC8KmOQ1bpOKhO2xG/YosId9NMiEykGkxjeD0GICs/L83J/tbq615lADpXvfGfP9M9Uxp4cMbSvN6v/LkLZ6EEwj/89EapfM3amOPZXINSlXz/8kfkx1tGnbUfeOU+onqpf0KVUWPYsjpy1oyOl6dTSvnvDnOpvw5hqELUentp09/3QraGe28WUDVUeH13Fg2sYp4UtfDBdmePEwXNIcUxmkBkGCDZpgoG6i2XyH9eitgIwqk6W1beeidxUSfj4mXtrGHCLc2RWllMmEb+c9wa/Um/9uff0qATxRAwVe9+xMj/tYO4UH60TThqVrzTDTEqiqGlz9V8TB1TcSQ4VxRtDs7279QwVuE9BamaR8b8O39ptkQZ22htpXQzF+UCE/t/ULlhRapw1sk9qZOwlCnY/4oHR2J4u2vmOnVHaktpTX+xi8k7GlConkTGCelXimdDGWgcfkvtGHqjIjC3YrJKnwRSB3w1SeQ9jOFRPL3V6/++P0LBuyUPpqu9sRDKZuuAlBP9K0mqvzZORFDiNA8gDikv3XAV398qPERkEr/hWAF/E6oLZsJzSoJ055JaAxBWXP0yAfi2snpaoTOaNy2a38ahK8+1TL+QiKLJuXfbc3oX8xBWt9Rgbc2KiAt1kTt1kod1YfuiSgsjA6Qt28txN9wTKd+/eNXUfdDesjRQwX13ED3xFTgkRbt9tVbN2E7NDogybcf3r76QyN8W2sEfOIn3c3gcK/n7+HwjljznAmRESFyp9qdTXnFldW0P48IO4Isy3dvNcQ/qSxLf3n11xfdMZH5Ok4H6q0tsuS5WYiUSEKcuuGqp+MkDNkJsT8l5VttrP7xF9iLdD7JxlkqSltbWxf5fJ6U4165sWZXCpAi9hQnavshQlwLt2X5Vvr906tXtXj877u2YUKydXZ6lBfJmkDWoJR7bp4xaqCIgWq9fUw4WqIJuQn1NQ1ZhtLdXxRJfkCRAqstb+4cqSIEIEbTDaBEvRXwNQXSEOWV4S1RWLHNu7aNMBQKjY6TpKyteN912kiSTJKiAoloQSOLQU8+E8x+EMmt+tmRNLJZqCMJHanzX/y6g4Rh2oIgSEikJklCrkfGP8kgGTFLwkAceGU52KFFIJKt1W3RNipDd6j3wkIbQ4kQKjVgSYHYhhoeGpuQpArYgTKFGN6gUAbefHS9AcXNswtcXliDUdIIajVZICrxTLRcjRQKPM8XIrFyNP5BFtp3dzKMp9i4Uk34Eiwl6AvdfuDNp4MCUShebMtmuAh9bgvaHEs3qhE+xbjGXYKuApTE/lfGW9h4EKUTe9KeaTmoJH94958iJq7oq/q6S/msLS6GgJtNVyBXqGk3K2QBvQKVVIKlfQFjE01akX9gv6dQogJJuT2qn1ZWkGOdsAcvkONvV7QbcABdgQyJonyBILLxBvY3MeDVR2bpjEJSrupiwqoZk+Ol0MoKckaAxkgoPjBMwDA3D4FXbsy4xSSh4CIsjncaTI6lcNKNbMjjnChiG8sJnqh5Z+eeSwWAynwH4fH4tV1ESOAFjg6J9wP7QTXgi8Sz2QqO+gwb9+53Y/FAdhKGvoxfn0eEWW2JjcTP49Fkg/EFAgGGof0Jnx8RerCC0pW6T5gZe2Igx1a0tFuC6AQ/laT9NBKDheC9tObtVO4eYbsyttxDhHGDsJLzs0SFzhlKpXKRGvmjO/5k+TGhfbUt1CHGPgCDCNNa9SvIWd6fygo406kiFXI5f8XDD3XTmNBRLXXGLw0GcqmoQUgU+AwJKUEgQS1e5nH9BD07SH0BQN52Ogt2K45/xCeQyzVUfBqqpACgKulMnCQWUyxbaAgAejUaYkGZlKW2DTE0/ukQRFgufQ6FUK0I4zGctjIZ/D3RuP6Qqh5cqbEUAwoumdqjGxalsRU7ItxTcLkokcC4BAwbayST0SrvydJpJH+5gup3Gd/YDenhYuym9EDOX8Xfeo2uxsv7Rmg6kgbaWO1oqzBtcpwzTeRyMRhvVGue2fw0lZgIgep2GQ3Wu85CZ2ydgAlrbI4BHno6ZjrxaQp/TTlehxmfRedyESWVo7PeLOefogS/l4U1BUJ5/INoiBCyOX8DeLaKeIKYVKQRjWbh2G/upHMFmUVDFXjpQbyvEw/GptGIkORzOV6ueXHlcCrRFBjnLplcQUA5KEt4t4x4qgJJMK5EZHI8tYgI48ArT8d8vWLKuK/VCeT4D1VUKyVftKvRxVLjyotEiiX2mFyk8g8gZOJjV85yqUolGqdk7y5YPF1lkBlTLORycajUFMpD+yy/Wiwgx0xE2p+BVDTm0aXfKTXuTksgR0fBC/3DD/fVqGVdf+Ip4M+h8mns6H2RYiGkktUCSxtACSbHFmLluOKd55m/UUxFQcWuTGXjmWQUpaqZdLxCkAoEXrxh/3UqpD+Qiks1SDX+KSZESqBR2YjGK1kKichW0tFGNfLPcKM2JfBtCV2jG2kzzTTTTDNNowTPR2LVciOazKQrEwNFKhqPR731hXRPFgtsmnRzqfzw294WHa2MCCeszfDmtrf//2SgkM64FP3mJbEE4y89Qpg23x9/8/97qgrcKn2Py5p6mJCxrCx9h1/2sPyxctaGR0Wrhe+RJTPxBwkT5ts/ZiGciYjm7xPH776bXoHow6O0/Jgn+s76/r/vMUKfMUx/1JNdMZPwu633PUrIlAkAiB/2t5CfgRAx+v0/7q73sxD+UM0Ip9dLIUz4Y3EtOxEyBWvOMDTt9/tTbGGxWsahk2EbAjolu2efVS7ClE2M0UKO5SPVMn+vTdrWZtk1UwP+SBy/UarssQwKqk/eGjCBkNe7qWdgpT2jEIhKVkqGN1/wVnoixkau30kYADbtOVqo3GuTd7RZtYeTVNTWDpGUnj7mxhNGtUSg4aeNjMD4FhJbWo0IqyXby9EtYCdhIiONOpbyxW0fiWun24/wvpi9Tdse4oKgHWmwrHHtv42Q1pM57Z4fXzKBsJg9KwfiM8i4wqhDVtJ+bx7S2qvKomYSpko4CdERq81CFLdpvRxt0tFTaOP5diZqb/1rCANpW3tmGmk+w7Nonp8FVJm3rigA1vMh9whxKp6NWAHe7yL0+SKjNgXcZsN8bVYfjP7S2pCKf8OTc7AxhMYvKDteWcPQusAVv4PH2kTrJqTR2I7aU3qzRYvQ3WbCPIMwHlI0Uktr1AaS30SYch4wL7D5FQiUeb2N01l9hoCS6dzcvpQAhPMGuNniiNAscQizC+YvMdo0xlHccj00MXbvxxMJM/pr0eiWtTDBOgnNXgcqrgachPivd7uWZCYTFsa3ab4sjXY47j19Z8A9QvP6UYbrSLlOMAktLxB3NeAgTGXBvT3gkwktW6dtTdiAAVE2xi2z9+TNgPcIzQMEjyOxnzaXVcyLdo8w7WrATqh5YveDI1MTjhY+sKJT7r51E1qzHJQU4FBjekJjhLseap6e0LXeIpanWW1xEwYyYIKi0xJGeCPYux6+n57QkRhhSY9s7qCr0Ya5JOMmZMzGJz3E+nTCUQbkfLJiekIfa091ND347TZ6BlRJjSUMmI1TE1YWn05ok8MtfAWhj6fcTT6wASJlXA9qPGHSeC1MGOtPJyRYK+cUvpXQR9vz1/tXzSHr1IKD0IxFZfeBryaMmNkWAI6di9NHC21GMbG4w5Bx3yRZp2ju33JT5qC0Es8JScNU0cJqrGS7XlMTxrL6G4lUoWGDnAQ48ksagmkywZy5rFntTPj6kakIE9aczI4y06kJ90DazNcStJWmg0kTMWGdwdjbGq1eWuHCMdB5M9WditAsxPAF+3rCqqNWoo0elCYA+nym49UGqd+o1sSRX7ESUcpWY2P3lPgKQl/BuqDWOP0aQvvfv9pzXzK3jA7of27JdDR2T2C5otFuJpaYnJc+4GmwrKhoBdgpCCMmof0mR8x1xe7JL1oW9LFGZkbYTwhYiKUYzQQCTC5jAzDfM3P7hIlghnXGeYARzE+YmxStuWlNpJKrCasHjRGStcvayCsf2hCofUA734yjcWf6T48y3VIlnc6OriaTsoIJiPgT2hdDmIsO4l4q4DhDiKUSPntSmUE5c8A/GrdxbRWPSe1ZRxb1NmNmm6UyblP3yFnjGuu54IPfX5vAvzPbqDbSRkP3tp4FrPTbEKWPyUVCsB0UFpGvJOwHMgGesMcsAY9zZnQLTyEaFfsHAFXwFZxtIgfvbDPNWDEnvcfzEW2tEVCP1BdsfLTaQyTHPgvSyFqpoFQxh3xMIGwSYr5EhrIdoOIM7ziDSmIjsqNjVNR+Pmoi4os4P4EInW1WGOStsnQqM+IW448vtCX4arRCENlMeXHSngi6ECtHM+loeZG1HE7A71AAb3O2i3afoV9p2wHG+T5qwvUJ5n6bPjqCXZC/gEZdJY46xD/tvlyCoWnmkTtciUDAUxt8EwzzWJdnmmmmmWaaaaaZZppppplmmmmmmWaaaaaZZppppplmmukb9X8W9nks3KW7vAAAAABJRU5ErkJggg==;" vertex="1" parent="1">
          <mxGeometry x="460" y="242.5" width="105" height="105" as="geometry" />
        </mxCell>
        <mxCell id="zVMeoH9VbbGE9zo6LWrE-4" value="" style="edgeStyle=orthogonalEdgeStyle;rounded=0;orthogonalLoop=1;jettySize=auto;html=1;" edge="1" parent="1" source="zVMeoH9VbbGE9zo6LWrE-3">
          <mxGeometry relative="1" as="geometry">
            <mxPoint x="210" y="295" as="targetPoint" />
          </mxGeometry>
        </mxCell>
        <mxCell id="zVMeoH9VbbGE9zo6LWrE-3" value="" style="shape=image;verticalLabelPosition=bottom;labelBackgroundColor=default;verticalAlign=top;aspect=fixed;imageAspect=0;image=data:image/jpeg,/9j/4AAQSkZJRgABAQAAAQABAAD/2wCEAAkGBwgHBhIIBxQWFhUXGB8bFxgYGBoYGBodHR8eHyAdHiQeJSggISAlGx8dITEhJSkrLi4uFx8zODUtNygtLisBCgoKBQUFDgUFDisZExkrKysrKysrKysrKysrKysrKysrKysrKysrKysrKysrKysrKysrKysrKysrKysrKysrK//AABEIAMgAyAMBIgACEQEDEQH/xAAcAAEBAAMAAwEAAAAAAAAAAAAABwUGCAIDBAH/xABBEAABAgQBBwcLAwIHAQAAAAABAAIDBAURBgcSEyExQVQXUVJhkZLRCBQWIkJxgZOhscEyM2JyohVEY4OUsuEj/8QAFAEBAAAAAAAAAAAAAAAAAAAAAP/EABQRAQAAAAAAAAAAAAAAAAAAAAD/2gAMAwEAAhEDEQA/ALiiIgIiICIiAiIgIiICIiAiIgIiICIiAiIgIiICIiAiIgIiICIiAiIgIiICIiAiIgIvHPbe1wvJAREQEREBERAREQEREBERAREQEREBERAREQERemZmIcrLvmIxs1oJJ5gBcoNexxjSm4Op3nE6c57v24Y/U4/gdakUKfyj5SYhiU8mBL9TjDh25s79TyvXhmnx8q2UCLVKpfzaEb5u7Nv6kMe/afiugpaBClYDYEu0Na0WAGoADcAghnIniXN0vnzc/wB8Tb718kWcyj5Nogiz5dHlxa+c4xIdv6v1MXQi9MxAhTMB0GYaHNcLEEXBB3EINcwLjWm4xp+nk/ViN/chk+s08/WOtbSud8U06Nkrx9Bq1Jv5vEN83dm39eGfuPgugZWYhTcqyYgG7XtDmnnBFwg96IiAiIgIiICIiAiIgIiICIiAiIgIiIC1TKjHdLZP56JD26IjvEA/dbWtAy2VWVp2BI0vMH1o1mQxzm4J+AAQYXIJ5lTsEOmph7GGJGdcucBfNAAGtb9N4sw9JtzpmbgN/wB1pPYCuT4kOoRIErJTgcyGSdFcEAh7gHOF9utWqUyCUhhDpqajO9zWt8UGWr+WfDNOYW04umH7gwFrL9bj+AVNZ3HWO4823FYbEZLscAGgEQbH2SPav0lXqLkswlR3iJDgaRw2Oikv1+7Z9Ftc5T5WcpzpGYY10Nzc0ttqI5rII3lQr9NxlkxhVeT/AFMjNDme0xzgQWnq696omS2O6ZyfyMSJt0QHwaSB9lzCGzzGTcpINc6EHAxLAkNDHHNJO73rovIpVZao4Dgy8ufWg3ZEG8G5cPgQUG/oiICIiAiIgIiICIiAiIgIiICIiAiIgKT+UFQ5ypUGBPyYLhBcc8DWc1wHrW6iPqqwvFzQ4ZrkHKuJ8VQcUTtM0cPRmAxkN41ZpIcNbepdVt/Sojl3wnLSMjBrlGhNh5ryIuY0C+dYtcbdYt8VScA4nlsU4dhzsAjPAAit3teBrv1HaEGzL8d+lfq1nH2J5bC2HYk7HIzyCITd7nkardQ2lBzzhjFUHC87UtJD0hjsfDYNWaCXHW7qVU8n2hzlNoMefnAWiM4ZgOo5rQfWt1k/RYjIRhOWnpGNXKzCbEzngQs9oNs25c4X6zb4K2taGjNag8kREBERAREQEREBERAREQEREBERAREQEWMrlcplBkzNVeK2G3dc6yeYDaT7lMa5l2psImFQ4D4rtzn+o3sFyfogrFQkZapST5OdaHQ3ghzTsIK5ifL1rCuUOYpWC3RC9ryGtFiXNAzrOGx1gtm/xnKpjTVT2PgQjva3RNt/U71j8Fh6thvFGTaqS+JphzYrs673AucLnUWPJ5xfWgznKTlIzPNvMvX2X83iXv7ti1VkvWsVZQ5elY0dED3PAc02Ba0jOs0bG3CufKLRfQv0mzvVtbR39bSW/btz3+mtRqk4bxRlJqkxiaXc2E7OuxxLmi41BjCOYW1oOj6fIy1NkmSck0NhsADWjYAF9K5//wAZyqYL1VBj48Ib3N0rbf1N9YfFZ+h5dqbFIhVyA+E7e5nrt7DYj6oLCixlDrlMr0mJqkRWxG77HWDzEbQfesmgIiICIiAiIgIiICIiAiIgIiINQyk4xbgyhCba3PiPdmw2nUL2uSeoBTKFlFymzMMR5aUu12tpEu8gg7LG+tbB5R0HOwvLRejH+7T4LfMAxvOMFyUXngM+jQPwg5xxNJY4xPUTPVaWmXO3DRPDWjmaLagsrQprGNAYBTKUxrh7ZlXuf3ibrplEEFGPsqY/yR/4z/FfLVcW5SKtT3yM/IZ0N4IcDLP2duoroREHHvopinR6PzSZzb3to32vz2ttW/UrFuUik09kjISGbDYAGgSz9nbrKvNSqEpS5N05UHthw27XONgF5U+elqlKNm5F4exwu1zdYIQQ44+ypn/JH/jP8VgK7NYxr7CKnSmOcfbEq9r+8DddMog5RwzJY4wxURPUmWmWu3jRPLXDmcLawtyi5RcpstDMeZlLNbrcTLvAAG25vqV8Wv4+jeb4LnYvNAf9WkflB8GTbGLcZ0Izbm5kRjs2I0axe1wR1ELb1I/Jxg5uF5mL0o/2aPFVxAREQEREBERAREQEREBERBNPKAg6TAOf0YzD23H5WaySRtNk7kjzMI7HEL5stcHTZOZr+OYex4XoyFxtLk7gt6L3j+4n8oKCiLWseYsl8HUM1GYaXknNY0aruIJFzuGpBkq7W6fQae6eqrwxg3naTzAbz1LE4GxrT8Zy8WNT2vaIbgCHga76wRZRyiUjEGV2ruqNWi5kux1jbY3fmMHP/Iq8YeoNOw7TmyNKYGMHaTzuO8oJt5RNW0GHoFLh7Y0TOPuYPEjsWTgYgp+TPAtPl6mx7i9g1MAuCRnOJvzZy0zKGTirLJLUVmtkMsYRuGvPf9PsrRX6BTcQUw0+qsDmHZuLTuLTuKDyoVbp9ep7Z6lPD2HeNoPMRuPUsmuc63SMQZIquKjSYufLvdYX2O35jxz/AMgrPgPFkvjChioy7Swg5r2nXZwAJsd41oNlWnZW42hydzp52AdrgFuKn2XSNosncZvSewf3A/hB8vk/wdHgHP6UZ57LD8KlrRcikHQ5OZX+Wee15W9ICIiAiIgIiICIiAiIgIiINVynwdNgCeZ/pE9lj+FrHk8Rs/BL4XRju+rWlbzjGD5xhScg88CJ/wBSpr5NsXOoc3B5orT2t/8AEFiWOrdHkK5T3SNTYHw3bQd3WDuPWsiiDnvEGE8SZMKma3hh7ny/tb7DoxW7x/L7KqYDx1J4sokSeDTDdCH/ANmnWBqJuDvGorbYjGxGljxcHaDrBWmY1psGg4CnmYcgNa57TdsJtic42c6w22BKCd5GIT8Q5RJ3EUfXm5xHviOsP7AVTMoeNZbBdKEzEaXxHkiGwagSBrLjuAWDyEUOLSMImYmmFr4zy6zgQc0am6j8T8VvdUo9OrENsOqQmRQ03aHgEA84QQrD+E8SZT6oK3id7mS/s7rjowm7h/L7q50SjyFDp7ZGmMDIbdgG/rJ3nrX3Q2NhtDGCwGwDUAvNAUu8oeNmYJZC6Udv0a4qoqO+UlFzaHKQeeK49jf/AFBvGTCDocASLP8ASB7bn8ralh8HQfN8KScHmgQ/+oWYQEREBERAREQEREBeLnBrc5y/SbC5UBxZiGuZRsVuw1hpxbAYSCQSA4NNnPeR7N9gQWiLiegQYhZFmoAI2gxWA/deHpbhzi5f5rPFTOWyB08QB53NxS+2vNa0Nv1XuV7uQKj8VG7rEG/VHE2HZinxYIm5f1mOH7rN4I51I8gNbp9IiTsGpxocIOzC3PeGgkZwNr7VnuQKj8VG7rE5AqPxUbusQUP0xw1xkv8ANZ4p6Y4a4yX+azxU85AqPxUbusTkCo/FRu6xBQ/THDXGS/zWeKemOGuMl/ms8VPOQKj8VG7rE5AqPxUbusQUP0wwzxkv81ninpjhrjJf5rPFTzkCo/FRu6xOQKj8VG7rEFD9McNcZL/NZ4p6Y4a4yX+azxU85AqPxUbusTkCo/FRu6xBQ/THDXGS/wA1nio7l9rdOq8WSg0yNDiBueXZjg4AktAvbZvWf5AqPxUbusTkCo/FRu6xBvtOxNh2Xp8KCZuX9VjR+6zc0DnX0+luHOLl/ms8VOeQKj8VG7rE5AqPxUbusQUmFiegRogZCmoBJ2ARWE/dZVrg5uc1RuZyB08wD5pNxQ+2rOa0tv12sVhsJ4hruTnFbcNYlcXQHkBpJJDQ42a9hPs32hBf0X4DcXC/UBERAREQfHVxENKjCD+rRuzbbb5ptZcyYBxhP4Gix3Q5TSPiWDi4OaWht9Woc5+i6nXrMKGTcgdgQQ3l0rPAN7z/AATl0rPAN7z/AAVy0UPojsCaKH0R2BBDeXSs8A3vP8E5dKzwDe8/wVy0UPojsCaKH0R2BBDeXSs8A3vP8E5dKzwDe8/wVy0UPojsCaKH0R2BBDeXSs8A3vP8E5dKzwDe8/wVy0UPojsCaKH0R2BBDeXSs8A3vP8ABOXSs8A3vP8ABXLRQ+iOwJoofRHYEEN5dKzwDe8/wTl0rPAN7z/BXLRQ+iOwJoofRHYEEN5dKzwDe8/wTl0rPAN7z/BXLRQ+iOwJoofRHYEEN5dKzwDe8/wTl0rPAN7z/BXLRQ+iOwJoofRHYEEN5dKzwDe8/wAFp2PcYVDHMWA6JKaN8O4aW5zi4OI1axzj6rqPRQ+iOwIIUMG4A7Ag+ekCIKVBEb9WjbnX23zRe6+xEQEREBERAREQEREBERAREQEREBERAREQEREBERAREQEREBERAREQEREBERAREQEREBERAREQEREBERAREQEREBERAREQf//Z;" vertex="1" parent="1">
          <mxGeometry x="20" y="240" width="110" height="110" as="geometry" />
        </mxCell>
        <mxCell id="zVMeoH9VbbGE9zo6LWrE-5" value="" style="shape=image;verticalLabelPosition=bottom;labelBackgroundColor=default;verticalAlign=top;aspect=fixed;imageAspect=0;image=https://www.vectorlogo.zone/logos/giteaio/giteaio-ar21.png;" vertex="1" parent="1">
          <mxGeometry x="220" y="255" width="160" height="80" as="geometry" />
        </mxCell>
      </root>
    </mxGraphModel>
  </diagram>
</mxfile>
